<svg width="0" height="0"  display="none" >
  <symbol xmlns="http://www.w3.org/2000/svg" viewBox="0 0 512 512" id="zyx-1">
    <path d="M373.4 0H138.6C62.2 0 0 62.2 0 138.6v234.8C0 449.8 62.2 512 138.6 512h234.8c76.4 0 138.6-62.2 138.6-138.6V138.6C512 62.2 449.8 0 373.4 0zM256 396c-77.2 0-140-62.8-140-140s62.8-140 140-140 140 62.8 140 140-62.8 140-140 140zm143.3-247c-22.8 0-41.4-18.6-41.4-41.4s18.6-41.4 41.4-41.4 41.4 18.6 41.4 41.4-18.5 41.4-41.4 41.4z"></path>
    <path d="M256 146c-60.6 0-110 49.3-110 110 0 60.6 49.3 110 110 110 60.6 0 110-49.3 110-110 0-60.6-49.4-110-110-110zm143.3-49.7c-6.3 0-11.4 5.1-11.4 11.4s5.1 11.4 11.4 11.4c6.3 0 11.4-5.1 11.4-11.4s-5.1-11.4-11.4-11.4z"></path>
  </symbol>
  <symbol xmlns="http://www.w3.org/2000/svg" viewBox="0 0 512 512" id="zyx-2">
    <path d="M256 10.7C114.6 10.7 0 123.3 0 262.2c0 111.2 73.3 205.4 175 238.7 12.8 2.4 17.5-5.4 17.5-12.1 0-6-.2-21.8-.3-42.8-71.2 15.2-86.2-33.7-86.2-33.7-11.6-29-28.5-36.8-28.5-36.8-23.2-15.6 1.8-15.3 1.8-15.3 25.7 1.7 39.2 25.9 39.2 25.9 22.8 38.5 59.9 27.3 74.6 20.9 2.3-16.3 8.9-27.3 16.2-33.6-56.9-6.3-116.6-27.9-116.6-124.3 0-27.5 9.9-49.9 26.3-67.5-2.9-6.4-11.5-31.9 2.2-66.6 0 0 21.4-6.7 70.4 25.8 20.5-5.6 42.2-8.4 64-8.5 21.8.1 43.5 2.9 64 8.5 48.6-32.5 70.1-25.8 70.1-25.8 13.8 34.6 5.1 60.2 2.6 66.6 16.3 17.6 26.2 40 26.2 67.5 0 96.6-59.8 117.9-116.8 124.1 9 7.6 17.3 23 17.3 46.5 0 33.7-.3 60.7-.3 68.9 0 6.6 4.5 14.5 17.6 11.9C438.7 467.6 512 373.2 512 262.2c0-138.9-114.6-251.5-256-251.5z"></path>
  </symbol>
  <symbol xmlns="http://www.w3.org/2000/svg" viewBox="0 0 512 512" id="zyx-3">
    <path d="M471.1 101L512 61.9v-8.6H370.5L269.6 304.4 154.9 53.3H6.5v8.6l47.7 57.5c4.7 4.2 7.1 10.5 6.5 16.7v225.8c1.5 8.1-1.2 16.5-6.9 22.4L0 449.4v8.4h152.4v-8.6l-53.8-65c-5.8-5.9-8.6-14.1-7.4-22.4V166.5L225 457.9h15.6l115.1-291.4v232.1c0 6.1 0 7.4-4 11.4l-41.4 40v8.6h200.8V450l-39.9-39.1c-3.5-2.6-5.3-7.1-4.6-11.4V112.4c-.7-4.4 1-8.8 4.5-11.4z"></path>
  </symbol>
  <symbol xmlns="http://www.w3.org/2000/svg" viewBox="0 0 512 512" id="zyx-4">
    <path d="M255.6 0C172.6 0 105 67.6 105 150.6v210.8c0 83 67.6 150.6 150.6 150.6s150.6-67.6 150.6-150.6V150.6C406.2 67.6 338.6 0 255.6 0zm119.9 361.4c0 66.1-53.8 119.9-119.9 119.9s-119.9-53.8-119.9-119.9V150.6c0-66.1 53.8-119.9 119.9-119.9s119.9 53.8 119.9 119.9v210.8z"></path>
    <path d="M255.6 101.9c-8.5 0-15.4 6.9-15.4 15.4V188c0 8.5 6.9 15.4 15.4 15.4S271 196.5 271 188v-70.7c0-8.6-6.9-15.4-15.4-15.4z"></path>
  </symbol>
  <symbol xmlns="http://www.w3.org/2000/svg" viewBox="0 0 512 512" id="zyx-5">
    <path d="M454.9 198.6c-16.2 0-30.4 6.8-40.9 17.4-38.5-27.1-90.4-44.5-148-46.3L296 33l95.2 21.7c0 23.6 19 42.9 42.3 42.9 23.7 0 42.8-19.8 42.8-43.5s-19-43.5-42.8-43.5c-16.6 0-31 10.2-38.1 24.1L290.2 11.1c-5.3-1.4-10.5 2.4-11.9 7.8l-32.8 150.7C188.4 172 137 189.4 98.4 216.5 88 205.4 73.2 198.6 57 198.6c-60 0-79.6 81.7-24.7 109.6-1.9 8.6-2.8 17.9-2.8 27.1 0 91.8 101.9 166.1 226.9 166.1 125.6 0 227.5-74.3 227.5-166.1 0-9.2-1-18.8-3.3-27.5 53.8-28.1 34-109.2-25.7-109.2zM119.5 314c0-24.1 19-43.5 42.8-43.5 23.3 0 42.3 19.3 42.3 43.5 0 23.7-19 42.9-42.3 42.9-23.7.1-42.8-19.3-42.8-42.9zm231.2 102.3c-39.3 39.9-150.1 39.9-189.4 0-4.3-3.8-4.3-10.6 0-15 3.8-3.8 10.5-3.8 14.3 0 30 31.2 129.5 31.7 160.8 0 3.8-3.8 10.5-3.8 14.3 0 4.3 4.4 4.3 11.2 0 15zm-.9-59.3c-23.3 0-42.3-19.3-42.3-42.9 0-24.1 19-43.5 42.3-43.5 23.7 0 42.8 19.3 42.8 43.5 0 23.5-19 42.9-42.8 42.9z"></path>
  </symbol>
  <symbol xmlns="http://www.w3.org/2000/svg" viewBox="0 0 512 512" id="zyx-6">
    <path d="M341.3 85H388V3.6C379.9 2.5 352.2 0 319.9 0 172 0 212.3 167.5 206.4 192H132v91h74.4v229h91.2V283H369l11.3-91h-82.7c3.9-60.2-16.3-107 43.7-107z" ></path>
  </symbol>
  <symbol xmlns="http://www.w3.org/2000/svg" viewBox="0 0 512 512" id="zyx-7">
    <path d="M459.4 151.7c20.8-14.8 38.3-33.2 52.6-54.5-19.1 8.3-39.3 13.9-60.5 16.6 21.8-13 38.4-33.4 46.2-58-20.3 12.1-42.7 20.6-66.6 25.4C411.9 60.7 384.4 48 354.5 48c-58.1 0-104.9 47.2-104.9 105 0 8.3.7 16.3 2.4 23.9-87.3-4.3-164.5-46.1-216.4-109.8-9 15.7-14.4 33.7-14.4 53.1 0 36.4 18.7 68.6 46.6 87.2-16.9-.3-33.4-5.2-47.4-12.9v1.2c0 51 36.4 93.4 84.1 103.1-8.6 2.3-17.9 3.5-27.5 3.5-6.7 0-13.5-.4-19.9-1.8 13.6 41.6 52.2 72.1 98.1 73.1-35.7 27.9-81.1 44.8-130.2 44.8-8.6 0-16.9-.4-25.1-1.4 46.5 30 101.6 47.1 161 47.1C346.3 464 467 309.5 459.4 151.7z"></path>
  </symbol>
  <symbol xmlns="http://www.w3.org/2000/svg" viewBox="0 0 512 512" id="zyx-8">
    <path d="M200.9 323.9L192.4 443c12.1 0 17.4-5.2 23.7-11.5l56.8-54.3 117.7 86.2c21.6 12 36.8 5.7 42.6-19.9l77.3-362.1c6.8-31.9-11.5-44.4-32.6-36.6l-454.1 174c-31 12-30.5 29.3-5.3 37.1L134.6 292l269.7-168.8c12.7-8.4 24.2-3.8 14.7 4.7l-218.1 196z"></path>
  </symbol>
</svg>